<?xml version="1.0" encoding="UTF-8"?>
<svg xmlns="http://www.w3.org/2000/svg" viewBox="0 0 48 48" width="48" height="48" aria-hidden="true">
  <defs>
    <clipPath id="g">
      <path d="M0 0h48v48H0z"/>
    </clipPath>
  </defs>
  <g clip-path="url(#g)">
    <path fill="#EA4335" d="M24 9.5c3.2 0 6.1 1.1 8.4 3.3l6.3-6.3C34.7 2.3 29.7 0 24 0 14.6 0 6.5 5.4 2.7 13.2l7.8 6.1C12.2 13.4 17.6 9.5 24 9.5z"/>
    <path fill="#4285F4" d="M46.5 24.5c0-1.6-.1-2.7-.4-4H24v7.6h12.7c-.6 3-2.4 5.6-5.1 7.3l7.8 6c4.5-4.2 7.1-10.4 7.1-16.9z"/>
    <path fill="#FBBC05" d="M10.5 27.3A14.45 14.45 0 0 1 10 24c0-1.1.2-2.2.5-3.3l-7.8-6.1C.9 17 0 20.4 0 24c0 3.6.9 7 2.7 9.4l7.8-6.1z"/>
    <path fill="#34A853" d="M24 48c6.5 0 12-2.1 16-5.8l-7.8-6c-2.2 1.4-5 2.2-8.2 2.2-6.4 0-11.8-3.9-13.5-9.4l-7.8 6.1C6.5 42.6 14.6 48 24 48z"/>
  </g>
</svg>
